<svg width="65" height="48" viewBox="0 0 65 48" xmlns="http://www.w3.org/2000/svg">
<path d="M64.1 33.4L60.4 9.7C60.4 9.4 60.3 9.1 60.3 8.8C60 6.3 59.3 3.8 57.3 2.1C56.2 1.2 54.8 0.6 53.4 0.3C52.3 0.0999999 50.8 -0.2 49.7 -1.56462e-07C48.5 0.3 47.7 1.4 48.1 2.6C48.6 4.1 50.3 4 51.5 4.1C52.9 4.2 54.4 4.5 55.3 5.8C56 6.8 56.2 8.1 56.3 9.3C56.4 9.7 56.4 10 56.5 10.4C56.7 11.8 57.8 17.4 58.7 23C56.4 21.2 53.4 20.1 50.3 20.1C45.1 20 40.5 22.8 38.1 26.9C36.2 26.2 34.2 25.8 32.2 25.9C30.2 25.8 28.2 26.2 26.3 27C23.9 22.9 19.4 20.1 14.3 20.1C11 20 7.9 21.2 5.5 23.1V23C6.4 17.5 7.5 11.9 7.7 10.4C7.6 10 7.7 9.7 7.7 9.3C7.9 7.9 8.1 6.3 9.1 5.3C10.3 4.2 12 4.1 13.6 4C14.8 3.9 16 3.5 16.1 2.1C16.2 1.1 15.7 0.4 14.8 0.0999998C13 -0.4 10.7 0.2 9 0.8C5.5 2.2 4.2 5.3 3.8 8.8C3.8 9.1 3.7 9.4 3.7 9.7C3.2 12.8 0.0999995 32.8 0.0999995 32.8C-0.1 40.5 6 47.9 13.7 48C13.9 48 14 48 14.2 48C23.1 48 29.9 39.3 27.7 30.7C29.1 30.1 30.6 29.9 32 29.9C33.5 29.9 35 30.1 36.3 30.6C34.1 39.2 40.7 47.8 49.6 48C49.8 48 49.9 48 50.1 48C58 48 64.5 41.2 64.1 33.4ZM14.2 44C8.8 44.1 4.1 39.6 4 34.2C3.9 28.8 8.4 24.1 13.8 24C13.9 24 14.1 24 14.2 24C19.6 24 24.2 28.6 24.2 34C24.1 39.4 19.6 44 14.2 44ZM50.2 44C44.8 44.1 40.1 39.6 40 34.2C39.9 28.8 44.4 24.1 49.8 24C49.9 24 50.1 24 50.2 24C54.9 24 58.9 27.3 59.9 31.8L60.1 33.4C60.4 39.1 55.8 44 50.2 44Z" />
</svg>
