<svg width="65" height="65" viewBox="0 0 65 65" xmlns="http://www.w3.org/2000/svg">
<path d="M63.9 45.8L58.8 36.3L58.4 35.7C58.4 35.7 58.4 35.7 58.4 35.6C58 35 57.1 34.8 56.5 35.2L55.9 35.6L46.8 41.7C46.1 42.1 45.9 43 46.3 43.8L46.7 44.3C46.7 44.3 46.7 44.3 46.7 44.4C47.2 45 48.1 45.1 48.7 44.6L54.1 40.9C52.7 51 44.1 58.9 34 60.1V20.1H42C43.1 20.1 44 19.2 44 18.1C44 17 43.1 16.1 42 16.1H33.9C33.9 16 33.9 16 33.9 15.9C37.5 15.1 40.1 11.9 40.1 8.1C40.1 3.6 36.5 0 32 0C27.6 0 24 3.6 24 8.1C24 11.9 26.6 15.1 30.2 15.9C30.2 16 30.2 16 30.1 16.1H22C20.9 16.1 20 17 20 18.1C20 19.2 20.9 20.1 22 20.1H30V60.2C19.9 59.3 11.4 51.4 10.1 41L15.5 44.7C16.1 45.2 17 45.1 17.5 44.5C17.5 44.5 17.5 44.5 17.5 44.4L17.9 43.9C18.3 43.2 18.1 42.3 17.4 41.8L8.3 35.7L7.7 35.3C7.1 34.9 6.2 35.1 5.8 35.7C5.8 35.7 5.8 35.7 5.8 35.8L5.4 36.4L0.299998 45.9C-0.100002 46.6 0.0999976 47.5 0.799998 48L1.4 48.2C2.1 48.6 2.9 48.3 3.3 47.6C3.3 47.6 3.3 47.6 3.3 47.5L6.3 41.9C8.1 54.7 19 64.3 32 64.3C45 64.3 56 54.7 57.8 41.9L60.8 47.5C60.8 47.5 60.8 47.5 60.8 47.6C61.2 48.3 62 48.6 62.7 48.2L63.3 48C64 47.4 64.3 46.5 63.9 45.8ZM28 8.1C28 5.8 29.8 4 32.1 4C34.3 4 36.2 5.8 36.2 8.1C36.2 10.3 34.4 12.2 32.1 12.2C29.8 12.1 28 10.3 28 8.1Z" />
</svg>
